<svg width="38.000000" height="38.000000" viewBox="0 0 38 38" fill="none" xmlns="http://www.w3.org/2000/svg" xmlns:xlink="http://www.w3.org/1999/xlink">
	<desc>
			Created with Pixso.
	</desc>
	<defs/>
	<g opacity="0.000000">
		<rect id="guard" width="38.000000" height="38.000000" fill="#FFFFFF" fill-opacity="1.000000"/>
	</g>
	<path id="logo__COLOR:main-1" d="M19 38C29.4932 38 38 29.4934 38 19C38 8.50659 29.4932 0 19 0C8.50684 0 0 8.50659 0 19C0 29.4934 8.50684 38 19 38Z" fill="#3DDC84" fill-opacity="1.000000" fill-rule="evenodd"/>
	<path id="logo__COLOR:logo-2" d="M24.8662 22C24.5068 22 24.1797 22.1973 23.9727 22.4915C22.8965 24.0194 21.1367 25 19.1846 25C15.9844 25 13.2998 22.3634 13.2998 19C13.2998 15.6366 15.9844 13 19.1846 13C21.1367 13 22.8965 13.9806 23.9727 15.5085C24.1797 15.8027 24.5068 16 24.8662 16L28.3418 16C29.0039 16 29.4834 15.3663 29.2295 14.7546C27.5859 10.7872 23.707 8 19.1846 8C13.1729 8 8.2998 12.9249 8.2998 19C8.2998 25.0751 13.1729 30 19.1846 30C23.707 30 27.5859 27.2128 29.2295 23.2454C29.4834 22.6337 29.0039 22 28.3418 22L24.8662 22Z" fill="#FFFFFF" fill-opacity="1.000000" fill-rule="evenodd"/>
</svg>
